# xmcd
#
# Track frame offsets: 
#        150
#        22562
#        42367
#        65100
#        89700
#        111637
#        130225
#        148275
#        170750
#        193105
#        211537
#        230745
#        251067
#        270075
#        294292
#        316600
#
# Disc length: 4472 seconds
#
# Revision: 1
# Processed by: cddbd v1.5.2PL0 Copyright (c) Steve Scherf et al.
# Submitted via: ExactAudioCopy v0.95b4
#
DISCID=ed117610
DTITLE=Various Artist - Clubtracks 1996 Vol.10
DYEAR=1996
DGENRE=R&B
TTITLE0=Jason Weaver - I Can Show You
TTITLE1=IID Extreme - You Got Me Going
TTITLE2=Organized Noize and Queen Latifah - Set It Off
TTITLE3=Dru Hill - Never Make A Promise
TTITLE4=702 - Get It Together
TTITLE5=Blackstreet - Fix
TTITLE6=Mona Lisa - Just Wanna Please U
TTITLE7=Babyface - Everytime I Close My Eyes
TTITLE8=Johnny Gill - Having Illusions
TTITLE9=Alexander O'Neil - Our Love
TTITLE10=Leschea - How We Stay
TTITLE11=Donnell Jones and Robert Brooks - The Way You Make Me Feel
TTITLE12=Shola Ama - You're The One I Love
TTITLE13=R. Kelly - I Believe I Can Fly
TTITLE14=Monica - For You I Will
TTITLE15=Whitney Houston - You Were Loved
EXTD=
EXTT0=
EXTT1=
EXTT2=
EXTT3=
EXTT4=
EXTT5=
EXTT6=
EXTT7=
EXTT8=
EXTT9=
EXTT10=
EXTT11=
EXTT12=
EXTT13=
EXTT14=
EXTT15=
PLAYORDER=
